<svg width="18" height="16" viewBox="0 0 18 16" fill="none" xmlns="http://www.w3.org/2000/svg">
<path d="M16.1666 6.24999H5.90809L8.75359 3.40448C9.08188 3.07635 9.26638 2.63123 9.26649 2.16706C9.26659 1.7029 9.08231 1.2577 8.75417 0.929402C8.42603 0.601108 7.98092 0.416613 7.51675 0.416504C7.05258 0.416395 6.60738 0.60068 6.27909 0.928819L2.09542 5.11248C1.33098 5.87903 0.901703 6.91742 0.901703 7.99998C0.901703 9.08255 1.33098 10.1209 2.09542 10.8875L6.27909 15.0712C6.60738 15.3993 7.05258 15.5836 7.51675 15.5835C7.98092 15.5834 8.42603 15.3989 8.75417 15.0706C9.08231 14.7423 9.26659 14.2971 9.26649 13.8329C9.26638 13.3687 9.08188 12.9236 8.75359 12.5955L5.90809 9.74998H16.1666C16.6307 9.74998 17.0758 9.56561 17.404 9.23742C17.7322 8.90923 17.9166 8.46411 17.9166 7.99998C17.9166 7.53586 17.7322 7.09074 17.404 6.76255C17.0758 6.43436 16.6307 6.24999 16.1666 6.24999Z" fill="#3C2F2F"/>
</svg>
